<svg width="50" height="20" viewBox="0 0 350 140" xmlns="http://www.w3.org/2000/svg" xmlns:xlink="http://www.w3.org/1999/xlink" xmlns:fi="http://pattern.flaticon.com/"><defs><path d="M72.089.02L59.624 0C45.62 0 36.57 9.285 36.57 23.656v10.907H24.037a1.96 1.96 0 0 0-1.96 1.961v15.803a1.96 1.96 0 0 0 1.96 1.96H36.57v39.876a1.96 1.96 0 0 0 1.96 1.96h16.352a1.96 1.96 0 0 0 1.96-1.96V54.287h14.654a1.96 1.96 0 0 0 1.96-1.96l.006-15.803a1.963 1.963 0 0 0-1.961-1.961H56.842v-9.246c0-4.444 1.059-6.7 6.848-6.7l8.397-.003a1.96 1.96 0 0 0 1.959-1.96V1.98A1.96 1.96 0 0 0 72.089.02z" transform="matrix(.6242 0 0 .6242 102 30)" id="a" fill="#fff"/><path d="M612 116.258a250.714 250.714 0 0 1-72.088 19.772c25.929-15.527 45.777-40.155 55.184-69.411-24.322 14.379-51.169 24.82-79.775 30.48-22.907-24.437-55.49-39.658-91.63-39.658-69.334 0-125.551 56.217-125.551 125.513 0 9.828 1.109 19.427 3.251 28.606-104.326-5.24-196.835-55.223-258.75-131.174-10.823 18.51-16.98 40.078-16.98 63.101 0 43.559 22.181 81.993 55.835 104.479a125.556 125.556 0 0 1-56.867-15.756v1.568c0 60.806 43.291 111.554 100.693 123.104-10.517 2.83-21.607 4.398-33.08 4.398-8.107 0-15.947-.803-23.634-2.333 15.985 49.907 62.336 86.199 117.253 87.194-42.947 33.654-97.099 53.655-155.916 53.655-10.134 0-20.116-.612-29.944-1.721 55.567 35.681 121.536 56.485 192.438 56.485 230.948 0 357.188-191.291 357.188-357.188l-.421-16.253c24.666-17.593 46.005-39.697 62.794-64.861z" transform="matrix(.09804 0 0 .09804 189 33)" fill="#fff" id="c"/><path d="M516.375 255v-76.5h-51V255h-76.5v51h76.5v76.5h51V306h76.5v-51h-76.5zm-196.35 86.7l-28.051-20.4c-10.2-7.649-20.399-17.85-20.399-35.7s12.75-33.15 25.5-40.8c33.15-25.5 66.3-53.55 66.3-109.65 0-53.55-33.15-84.15-51-99.45h43.35l30.6-35.7h-158.1c-112.2 0-168.3 71.4-168.3 147.9 0 58.65 45.9 122.4 127.5 122.4h20.4c-2.55 7.65-10.2 20.4-10.2 33.15 0 25.5 10.2 35.7 22.95 51-35.7 2.55-102 10.2-150.45 40.8-45.9 28.05-58.65 66.3-58.65 94.35 0 58.65 53.55 114.75 168.3 114.75 137.7 0 204.001-76.5 204.001-150.449-.001-53.551-28.051-81.601-63.751-112.201zm-193.8-232.05c0-56.1 33.15-81.6 68.85-81.6 66.3 0 102 89.25 102 140.25 0 66.3-53.55 79.05-73.95 79.05-63.75 0-96.9-79.05-96.9-137.7zm91.799 459c-84.15 0-137.7-38.25-137.7-94.351 0-56.1 51-73.95 66.3-81.6 33.15-10.2 76.5-12.75 84.15-12.75h17.85c61.2 43.35 86.7 61.2 86.7 102 0 48.451-48.449 86.701-117.3 86.701z" transform="translate(280 31) scale(.09928)" id="e" fill="#fff"/><path d="M430.117 261.543V420.56h-92.188V272.193c0-37.271-13.334-62.707-46.703-62.707-25.473 0-40.632 17.142-47.301 33.724-2.432 5.928-3.058 14.179-3.058 22.477V420.56h-92.219s1.242-251.285 0-277.32h92.21v39.309c-.187.294-.43.611-.606.896h.606v-.896c12.251-18.869 34.13-45.824 83.102-45.824 60.673-.001 106.157 39.636 106.157 124.818zM52.183 9.558C20.635 9.558 0 30.251 0 57.463c0 26.619 20.038 47.94 50.959 47.94h.616c32.159 0 52.159-21.317 52.159-47.94-.606-27.212-20-47.905-51.551-47.905zM5.477 420.56h92.184V143.24H5.477v277.32z" transform="matrix(.1395 0 0 .1395 24 29)" id="g" fill="#fff"/></defs><g fi:class="KUsePattern"><pattern id="b" width="350" height="350" patternUnits="userSpaceOnUse"><use xlink:href="#a" x="-350" y="-350"/><use xlink:href="#a" y="-350"/><use xlink:href="#a" x="350" y="-350"/><use xlink:href="#a" x="-350"/><use xlink:href="#a"/><use xlink:href="#a" x="350"/><use xlink:href="#a" x="-350" y="350"/><use xlink:href="#a" y="350"/><use xlink:href="#a" x="350" y="350"/></pattern><rect width="100%" height="100%" fill="url(#b)"/></g><g fi:class="KUsePattern"><pattern id="d" width="350" height="350" patternUnits="userSpaceOnUse"><use xlink:href="#c" x="-350" y="-350"/><use xlink:href="#c" y="-350"/><use xlink:href="#c" x="350" y="-350"/><use xlink:href="#c" x="-350"/><use xlink:href="#c"/><use xlink:href="#c" x="350"/><use xlink:href="#c" x="-350" y="350"/><use xlink:href="#c" y="350"/><use xlink:href="#c" x="350" y="350"/></pattern><rect width="100%" height="100%" fill="url(#d)"/></g><g fi:class="KUsePattern"><pattern id="f" width="350" height="350" patternUnits="userSpaceOnUse"><use xlink:href="#e" x="-350" y="-350"/><use xlink:href="#e" y="-350"/><use xlink:href="#e" x="350" y="-350"/><use xlink:href="#e" x="-350"/><use xlink:href="#e"/><use xlink:href="#e" x="350"/><use xlink:href="#e" x="-350" y="350"/><use xlink:href="#e" y="350"/><use xlink:href="#e" x="350" y="350"/></pattern><rect width="100%" height="100%" fill="url(#f)"/></g><g fi:class="KUsePattern"><pattern id="h" width="350" height="350" patternUnits="userSpaceOnUse"><use xlink:href="#g" x="-350" y="-350"/><use xlink:href="#g" y="-350"/><use xlink:href="#g" x="350" y="-350"/><use xlink:href="#g" x="-350"/><use xlink:href="#g"/><use xlink:href="#g" x="350"/><use xlink:href="#g" x="-350" y="350"/><use xlink:href="#g" y="350"/><use xlink:href="#g" x="350" y="350"/></pattern><rect width="100%" height="100%" fill="url(#h)"/></g></svg>